<svg xmlns="http://www.w3.org/2000/svg" version="1.1" xmlns:xlink="http://www.w3.org/1999/xlink" xmlns:svgjs="http://svgjs.dev/svgjs" viewBox="0 0 1920 1080"><rect width="1920" height="1080" fill="#0000ff"></rect><g transform="matrix(-1.15,1.408343819019456e-16,-1.408343819019456e-16,-1.15,2064,1161)"><path d="M0,-1080C0,-990,0,-720,0,-540C0,-360,0,-180.0000000000001,0,-1.1368683772161603e-13C0,179.9999999999999,0,360,0,540C0,720,0,900,0,1080C0,1260,0,1440,0,1620C0,1800,0,2070,0,2160L 1920 2160 L 1920 -1080 Z" fill="url(&quot;#SvgjsLinearGradient1193&quot;)"></path><path d="M160,-1080C160,-972,160,-648,160,-432C160,-216,160,0,160,216C160,432,160,648,160,864C160,1080,160,1296,160,1512C160,1728,160,2052,160,2160L 1920 2160 L 1920 -1080 Z" fill="url(&quot;#SvgjsLinearGradient1194&quot;)"></path><path d="M320,-1080C320,-990,320,-720,320,-540C320,-360,320,-180.0000000000001,320,-1.1368683772161603e-13C320,179.9999999999999,320,360,320,540C320,720,320,900,320,1080C320,1260,320,1440,320,1620C320,1800,320,2070,320,2160L 1920 2160 L 1920 -1080 Z" fill="url(&quot;#SvgjsLinearGradient1195&quot;)"></path><path d="M480,-1080C480,-945,480,-540,480,-270C480,0,480,270,480,540C480,810,480,1080,480,1350C480,1620,480,2025,480,2160L 1920 2160 L 1920 -1080 Z" fill="url(&quot;#SvgjsLinearGradient1196&quot;)"></path><path d="M640,-1080C640,-990,640,-720,640,-540C640,-360,640,-180.0000000000001,640,-1.1368683772161603e-13C640,179.9999999999999,640,360,640,540C640,720,640,900,640,1080C640,1260,640,1440,640,1620C640,1800,640,2070,640,2160L 1920 2160 L 1920 -1080 Z" fill="url(&quot;#SvgjsLinearGradient1197&quot;)"></path><path d="M800,-1080C800,-945,800,-540,800,-270C800,0,800,270,800,540C800,810,800,1080,800,1350C800,1620,800,2025,800,2160L 1920 2160 L 1920 -1080 Z" fill="url(&quot;#SvgjsLinearGradient1198&quot;)"></path><path d="M960,-1080C960,-1002.8571428571429,960,-771.4285714285716,960,-617.1428571428572C960,-462.85714285714295,960,-308.57142857142867,960,-154.28571428571433C960,-2.842170943040401e-14,960,154.28571428571428,960,308.57142857142856C960,462.85714285714283,960,617.1428571428571,960,771.4285714285713C960,925.7142857142856,960,1080,960,1234.2857142857142C960,1388.5714285714284,960,1542.8571428571427,960,1697.1428571428569C960,1851.428571428571,960,2082.8571428571427,960,2160L 1920 2160 L 1920 -1080 Z" fill="url(&quot;#SvgjsLinearGradient1199&quot;)"></path><path d="M1120,-1080C1120,-1012.5,1120,-810,1120,-675C1120,-540,1120,-405,1120,-270C1120,-135,1120,0,1120,135C1120,270,1120,405,1120,540C1120,675,1120,810,1120,945C1120,1080,1120,1215,1120,1350C1120,1485,1120,1620,1120,1755C1120,1890,1120,2092.5,1120,2160L 1920 2160 L 1920 -1080 Z" fill="url(&quot;#SvgjsLinearGradient1200&quot;)"></path><path d="M1280,-1080C1280,-1002.8571428571429,1280.0000000000002,-771.4285714285716,1280.0000000000002,-617.1428571428572C1280.0000000000002,-462.85714285714295,1280,-308.57142857142867,1280,-154.28571428571433C1280,-2.842170943040401e-14,1280,154.28571428571428,1280,308.57142857142856C1280,462.85714285714283,1280,617.1428571428571,1280,771.4285714285713C1280,925.7142857142856,1280,1080,1280,1234.2857142857142C1280,1388.5714285714284,1280,1542.8571428571427,1280,1697.1428571428569C1280,1851.428571428571,1280,2082.8571428571427,1280,2160L 1920 2160 L 1920 -1080 Z" fill="url(&quot;#SvgjsLinearGradient1201&quot;)"></path><path d="M1440,-1080C1440,-972,1440,-648,1440,-432C1440,-216,1440,0,1440,216C1440,432,1440,648,1440,864C1440,1080,1440,1296,1440,1512C1440,1728,1440,2052,1440,2160L 1920 2160 L 1920 -1080 Z" fill="url(&quot;#SvgjsLinearGradient1202&quot;)"></path><path d="M1600,-1080C1600,-972,1600,-648,1600,-432C1600,-216,1600,0,1600,216C1600,432,1600,648,1600,864C1600,1080,1600,1296,1600,1512C1600,1728,1600,2052,1600,2160L 1920 2160 L 1920 -1080 Z" fill="url(&quot;#SvgjsLinearGradient1203&quot;)"></path><path d="M1760,-1080C1760,-972,1760,-648,1760,-432C1760,-216,1760,0,1760,216C1760,432,1760,648,1760,864C1760,1080,1760,1296,1760,1512C1760,1728,1760,2052,1760,2160L 1920 2160 L 1920 -1080 Z" fill="url(&quot;#SvgjsLinearGradient1204&quot;)"></path></g><defs><linearGradient x1="0.1" y1="0" x2="0" y2="1" id="SvgjsLinearGradient1193"><stop stop-color="#0000ff" offset="0"></stop><stop stop-color="#002bff" offset="0"></stop></linearGradient><linearGradient x1="0.1" y1="0" x2="0" y2="1" id="SvgjsLinearGradient1194"><stop stop-color="#0000fa" offset="0"></stop><stop stop-color="#002afa" offset="0.08333333333333333"></stop></linearGradient><linearGradient x1="0.1" y1="0" x2="0" y2="1" id="SvgjsLinearGradient1195"><stop stop-color="#0000f5" offset="0"></stop><stop stop-color="#0029f5" offset="0.16666666666666666"></stop></linearGradient><linearGradient x1="0.1" y1="0" x2="0" y2="1" id="SvgjsLinearGradient1196"><stop stop-color="#0000f0" offset="0"></stop><stop stop-color="#0028f0" offset="0.25"></stop></linearGradient><linearGradient x1="0.1" y1="0" x2="0" y2="1" id="SvgjsLinearGradient1197"><stop stop-color="#0000ec" offset="0"></stop><stop stop-color="#0027ec" offset="0.3333333333333333"></stop></linearGradient><linearGradient x1="0.1" y1="0" x2="0" y2="1" id="SvgjsLinearGradient1198"><stop stop-color="#0000e7" offset="0"></stop><stop stop-color="#0026e7" offset="0.4166666666666667"></stop></linearGradient><linearGradient x1="0.1" y1="0" x2="0" y2="1" id="SvgjsLinearGradient1199"><stop stop-color="#0000e2" offset="0"></stop><stop stop-color="#0026e2" offset="0.5"></stop></linearGradient><linearGradient x1="0.1" y1="0" x2="0" y2="1" id="SvgjsLinearGradient1200"><stop stop-color="#0000dd" offset="0"></stop><stop stop-color="#0025dd" offset="0.5833333333333334"></stop></linearGradient><linearGradient x1="0.1" y1="0" x2="0" y2="1" id="SvgjsLinearGradient1201"><stop stop-color="#0000d8" offset="0"></stop><stop stop-color="#0024d8" offset="0.6666666666666666"></stop></linearGradient><linearGradient x1="0.1" y1="0" x2="0" y2="1" id="SvgjsLinearGradient1202"><stop stop-color="#0000d3" offset="0"></stop><stop stop-color="#0023d3" offset="0.75"></stop></linearGradient><linearGradient x1="0.1" y1="0" x2="0" y2="1" id="SvgjsLinearGradient1203"><stop stop-color="#0000cf" offset="0"></stop><stop stop-color="#0022cf" offset="0.8333333333333334"></stop></linearGradient><linearGradient x1="0.1" y1="0" x2="0" y2="1" id="SvgjsLinearGradient1204"><stop stop-color="#0000ca" offset="0"></stop><stop stop-color="#0022ca" offset="0.9166666666666666"></stop></linearGradient></defs></svg>