<svg xmlns="http://www.w3.org/2000/svg" version="1.1" xmlns:xlink="http://www.w3.org/1999/xlink" xmlns:svgjs="http://svgjs.dev/svgjs" viewBox="0 0 1920 1080"><rect width="1920" height="1080" fill="#00ff00"></rect><g transform="matrix(-1.15,1.408343819019456e-16,-1.408343819019456e-16,-1.15,2064,1161)"><path d="M0,-1080C0,-990,0,-720,0,-540C0,-360,0,-180.0000000000001,0,-1.1368683772161603e-13C0,179.9999999999999,0,360,0,540C0,720,0,900,0,1080C0,1260,0,1440,0,1620C0,1800,0,2070,0,2160L 1920 2160 L 1920 -1080 Z" fill="url(&quot;#SvgjsLinearGradient1145&quot;)"></path><path d="M160,-1080C160,-972,160,-648,160,-432C160,-216,160,0,160,216C160,432,160,648,160,864C160,1080,160,1296,160,1512C160,1728,160,2052,160,2160L 1920 2160 L 1920 -1080 Z" fill="url(&quot;#SvgjsLinearGradient1146&quot;)"></path><path d="M320,-1080C320,-945,320,-540,320,-270C320,0,320,270,320,540C320,810,320,1080,320,1350C320,1620,320,2025,320,2160L 1920 2160 L 1920 -1080 Z" fill="url(&quot;#SvgjsLinearGradient1147&quot;)"></path><path d="M480,-1080C480,-990,480,-720,480,-540C480,-360,480.00000000000006,-180.0000000000001,480.00000000000006,-1.1368683772161603e-13C480.00000000000006,179.9999999999999,480,360,480,540C480,720,480,900,480,1080C480,1260,480,1440,480,1620C480,1800,480,2070,480,2160L 1920 2160 L 1920 -1080 Z" fill="url(&quot;#SvgjsLinearGradient1148&quot;)"></path><path d="M640,-1080C640,-972,640,-648,640,-432C640,-216,640,0,640,216C640,432,640,648,640,864C640,1080,640,1296,640,1512C640,1728,640,2052,640,2160L 1920 2160 L 1920 -1080 Z" fill="url(&quot;#SvgjsLinearGradient1149&quot;)"></path><path d="M800,-1080C800,-1002.8571428571429,800,-771.4285714285716,800,-617.1428571428572C800,-462.85714285714295,800,-308.57142857142867,800,-154.28571428571433C800,-2.842170943040401e-14,800,154.28571428571428,800,308.57142857142856C800,462.85714285714283,800,617.1428571428571,800,771.4285714285713C800,925.7142857142856,800,1080,800,1234.2857142857142C800,1388.5714285714284,800,1542.8571428571427,800,1697.1428571428569C800,1851.428571428571,800,2082.8571428571427,800,2160L 1920 2160 L 1920 -1080 Z" fill="url(&quot;#SvgjsLinearGradient1150&quot;)"></path><path d="M960,-1080C960,-1002.8571428571429,960,-771.4285714285716,960,-617.1428571428572C960,-462.85714285714295,960,-308.57142857142867,960,-154.28571428571433C960,-2.842170943040401e-14,960,154.28571428571428,960,308.57142857142856C960,462.85714285714283,960,617.1428571428571,960,771.4285714285713C960,925.7142857142856,960,1080,960,1234.2857142857142C960,1388.5714285714284,960,1542.8571428571427,960,1697.1428571428569C960,1851.428571428571,960,2082.8571428571427,960,2160L 1920 2160 L 1920 -1080 Z" fill="url(&quot;#SvgjsLinearGradient1151&quot;)"></path><path d="M1120,-1080C1120,-1012.5,1120,-810,1120,-675C1120,-540,1120,-405,1120,-270C1120,-135,1120,0,1120,135C1120,270,1120,405,1120,540C1120,675,1120,810,1120,945C1120,1080,1120,1215,1120,1350C1120,1485,1120,1620,1120,1755C1120,1890,1120,2092.5,1120,2160L 1920 2160 L 1920 -1080 Z" fill="url(&quot;#SvgjsLinearGradient1152&quot;)"></path><path d="M1280,-1080C1280,-1002.8571428571429,1280.0000000000002,-771.4285714285716,1280.0000000000002,-617.1428571428572C1280.0000000000002,-462.85714285714295,1280,-308.57142857142867,1280,-154.28571428571433C1280,-2.842170943040401e-14,1280,154.28571428571428,1280,308.57142857142856C1280,462.85714285714283,1280,617.1428571428571,1280,771.4285714285713C1280,925.7142857142856,1280,1080,1280,1234.2857142857142C1280,1388.5714285714284,1280,1542.8571428571427,1280,1697.1428571428569C1280,1851.428571428571,1280,2082.8571428571427,1280,2160L 1920 2160 L 1920 -1080 Z" fill="url(&quot;#SvgjsLinearGradient1153&quot;)"></path><path d="M1440,-1080C1440,-945,1440,-540,1440,-270C1440,0,1440,270,1440,540C1440,810,1440,1080,1440,1350C1440,1620,1440,2025,1440,2160L 1920 2160 L 1920 -1080 Z" fill="url(&quot;#SvgjsLinearGradient1154&quot;)"></path><path d="M1600,-1080C1600,-972,1600,-648,1600,-432C1600,-216,1600,0,1600,216C1600,432,1600,648,1600,864C1600,1080,1600,1296,1600,1512C1600,1728,1600,2052,1600,2160L 1920 2160 L 1920 -1080 Z" fill="url(&quot;#SvgjsLinearGradient1155&quot;)"></path><path d="M1760,-1080C1760,-1002.8571428571429,1760,-771.4285714285716,1760,-617.1428571428572C1760,-462.85714285714295,1760,-308.57142857142867,1760,-154.28571428571433C1760,-2.842170943040401e-14,1760,154.28571428571428,1760,308.57142857142856C1760,462.85714285714283,1760,617.1428571428571,1760,771.4285714285713C1760,925.7142857142856,1760,1080,1760,1234.2857142857142C1760,1388.5714285714284,1760,1542.8571428571427,1760,1697.1428571428569C1760,1851.428571428571,1760,2082.8571428571427,1760,2160L 1920 2160 L 1920 -1080 Z" fill="url(&quot;#SvgjsLinearGradient1156&quot;)"></path></g><defs><linearGradient x1="0.1" y1="0" x2="0" y2="1" id="SvgjsLinearGradient1145"><stop stop-color="#00ff00" offset="0"></stop><stop stop-color="#2bff00" offset="0"></stop></linearGradient><linearGradient x1="0.1" y1="0" x2="0" y2="1" id="SvgjsLinearGradient1146"><stop stop-color="#00e600" offset="0"></stop><stop stop-color="#26e600" offset="0.08333333333333333"></stop></linearGradient><linearGradient x1="0.1" y1="0" x2="0" y2="1" id="SvgjsLinearGradient1147"><stop stop-color="#00cd00" offset="0"></stop><stop stop-color="#22cd00" offset="0.16666666666666666"></stop></linearGradient><linearGradient x1="0.1" y1="0" x2="0" y2="1" id="SvgjsLinearGradient1148"><stop stop-color="#00b400" offset="0"></stop><stop stop-color="#1eb400" offset="0.25"></stop></linearGradient><linearGradient x1="0.1" y1="0" x2="0" y2="1" id="SvgjsLinearGradient1149"><stop stop-color="#009b00" offset="0"></stop><stop stop-color="#1a9b00" offset="0.3333333333333333"></stop></linearGradient><linearGradient x1="0.1" y1="0" x2="0" y2="1" id="SvgjsLinearGradient1150"><stop stop-color="#008200" offset="0"></stop><stop stop-color="#168200" offset="0.4166666666666667"></stop></linearGradient><linearGradient x1="0.1" y1="0" x2="0" y2="1" id="SvgjsLinearGradient1151"><stop stop-color="#006900" offset="0"></stop><stop stop-color="#116900" offset="0.5"></stop></linearGradient><linearGradient x1="0.1" y1="0" x2="0" y2="1" id="SvgjsLinearGradient1152"><stop stop-color="#005000" offset="0"></stop><stop stop-color="#0d5000" offset="0.5833333333333334"></stop></linearGradient><linearGradient x1="0.1" y1="0" x2="0" y2="1" id="SvgjsLinearGradient1153"><stop stop-color="#003700" offset="0"></stop><stop stop-color="#093700" offset="0.6666666666666666"></stop></linearGradient><linearGradient x1="0.1" y1="0" x2="0" y2="1" id="SvgjsLinearGradient1154"><stop stop-color="#001e00" offset="0"></stop><stop stop-color="#051e00" offset="0.75"></stop></linearGradient><linearGradient x1="0.1" y1="0" x2="0" y2="1" id="SvgjsLinearGradient1155"><stop stop-color="#000600" offset="0"></stop><stop stop-color="#010600" offset="0.8333333333333334"></stop></linearGradient><linearGradient x1="0.1" y1="0" x2="0" y2="1" id="SvgjsLinearGradient1156"><stop stop-color="#000000" offset="0"></stop><stop stop-color="#000000" offset="0.9166666666666666"></stop></linearGradient></defs></svg>