<svg xmlns="http://www.w3.org/2000/svg" version="1.1" xmlns:xlink="http://www.w3.org/1999/xlink" xmlns:svgjs="http://svgjs.dev/svgjs" viewBox="0 0 1920 1080"><rect width="1920" height="1080" fill="#1f2937"></rect><g transform="matrix(0.5750000000000001,0.9959292143521044,-0.9959292143521044,0.5750000000000001,945.8017757501362,-726.5920457780203)"><path d="M0,-1080C0,-1002.8571428571429,0,-771.4285714285716,0,-617.1428571428572C0,-462.85714285714295,0,-308.57142857142867,0,-154.28571428571433C0,-2.842170943040401e-14,0,154.28571428571428,0,308.57142857142856C0,462.85714285714283,0,617.1428571428571,0,771.4285714285713C0,925.7142857142856,0,1080,0,1234.2857142857142C0,1388.5714285714284,0,1542.8571428571427,0,1697.1428571428569C0,1851.428571428571,0,2082.8571428571427,0,2160L 1920 2160 L 1920 -1080 Z" fill="url(&quot;#SvgjsLinearGradient1049&quot;)"></path><path d="M160,-1080C160,-990,160,-720,160,-540C160,-360,160,-180.0000000000001,160,-1.1368683772161603e-13C160,179.9999999999999,160,360,160,540C160,720,160,900,160,1080C160,1260,160,1440,160,1620C160,1800,160,2070,160,2160L 1920 2160 L 1920 -1080 Z" fill="url(&quot;#SvgjsLinearGradient1050&quot;)"></path><path d="M320,-1080C320,-990,320,-720,320,-540C320,-360,320,-180.0000000000001,320,-1.1368683772161603e-13C320,179.9999999999999,320,360,320,540C320,720,320,900,320,1080C320,1260,320,1440,320,1620C320,1800,320,2070,320,2160L 1920 2160 L 1920 -1080 Z" fill="url(&quot;#SvgjsLinearGradient1051&quot;)"></path><path d="M480,-1080C480,-1002.8571428571429,480,-771.4285714285716,480,-617.1428571428572C480,-462.85714285714295,480,-308.57142857142867,480,-154.28571428571433C480,-2.842170943040401e-14,480,154.28571428571428,480,308.57142857142856C480,462.85714285714283,480,617.1428571428571,480,771.4285714285713C480,925.7142857142856,480,1080,480,1234.2857142857142C480,1388.5714285714284,480,1542.8571428571427,480,1697.1428571428569C480,1851.428571428571,480,2082.8571428571427,480,2160L 1920 2160 L 1920 -1080 Z" fill="url(&quot;#SvgjsLinearGradient1052&quot;)"></path><path d="M640,-1080C640,-972,640,-648,640,-432C640,-216,640,0,640,216C640,432,640,648,640,864C640,1080,640,1296,640,1512C640,1728,640,2052,640,2160L 1920 2160 L 1920 -1080 Z" fill="url(&quot;#SvgjsLinearGradient1053&quot;)"></path><path d="M800,-1080C800,-972,800,-648,800,-432C800,-216,800,0,800,216C800,432,800,648,800,864C800,1080,800,1296,800,1512C800,1728,800,2052,800,2160L 1920 2160 L 1920 -1080 Z" fill="url(&quot;#SvgjsLinearGradient1054&quot;)"></path><path d="M960,-1080C960,-972,960,-648,960,-432C960,-216,960,0,960,216C960,432,960,648,960,864C960,1080,960,1296,960,1512C960,1728,960,2052,960,2160L 1920 2160 L 1920 -1080 Z" fill="url(&quot;#SvgjsLinearGradient1055&quot;)"></path><path d="M1120,-1080C1120,-972,1120,-648,1120,-432C1120,-216,1120,0,1120,216C1120,432,1120,648,1120,864C1120,1080,1120,1296,1120,1512C1120,1728,1120,2052,1120,2160L 1920 2160 L 1920 -1080 Z" fill="url(&quot;#SvgjsLinearGradient1056&quot;)"></path><path d="M1280,-1080C1280,-990,1280,-720,1280,-540C1280,-360,1280,-180.0000000000001,1280,-1.1368683772161603e-13C1280,179.9999999999999,1280,360,1280,540C1280,720,1280,900,1280,1080C1280,1260,1280,1440,1280,1620C1280,1800,1280,2070,1280,2160L 1920 2160 L 1920 -1080 Z" fill="url(&quot;#SvgjsLinearGradient1057&quot;)"></path><path d="M1440,-1080C1440,-990,1440,-720,1440,-540C1440,-360,1440,-180.0000000000001,1440,-1.1368683772161603e-13C1440,179.9999999999999,1440,360,1440,540C1440,720,1440,900,1440,1080C1440,1260,1440,1440,1440,1620C1440,1800,1440,2070,1440,2160L 1920 2160 L 1920 -1080 Z" fill="url(&quot;#SvgjsLinearGradient1058&quot;)"></path><path d="M1600,-1080C1600,-990,1600,-720,1600,-540C1600,-360,1600,-180.0000000000001,1600,-1.1368683772161603e-13C1600,179.9999999999999,1600,360,1600,540C1600,720,1600,900,1600,1080C1600,1260,1600,1440,1600,1620C1600,1800,1600,2070,1600,2160L 1920 2160 L 1920 -1080 Z" fill="url(&quot;#SvgjsLinearGradient1059&quot;)"></path><path d="M1760,-1080C1760,-990,1760,-720,1760,-540C1760,-360,1760,-180.0000000000001,1760,-1.1368683772161603e-13C1760,179.9999999999999,1760,360,1760,540C1760,720,1760,900,1760,1080C1760,1260,1760,1440,1760,1620C1760,1800,1760,2070,1760,2160L 1920 2160 L 1920 -1080 Z" fill="url(&quot;#SvgjsLinearGradient1060&quot;)"></path></g><defs><linearGradient x1="0.1" y1="0" x2="0" y2="1" id="SvgjsLinearGradient1049"><stop stop-color="#1f2937" offset="0"></stop><stop stop-color="#1f2d37" offset="0"></stop></linearGradient><linearGradient x1="0.1" y1="0" x2="0" y2="1" id="SvgjsLinearGradient1050"><stop stop-color="#2c3a4e" offset="0"></stop><stop stop-color="#2c404e" offset="0.08333333333333333"></stop></linearGradient><linearGradient x1="0.1" y1="0" x2="0" y2="1" id="SvgjsLinearGradient1051"><stop stop-color="#394b65" offset="0"></stop><stop stop-color="#395265" offset="0.16666666666666666"></stop></linearGradient><linearGradient x1="0.1" y1="0" x2="0" y2="1" id="SvgjsLinearGradient1052"><stop stop-color="#465c7c" offset="0"></stop><stop stop-color="#46657c" offset="0.25"></stop></linearGradient><linearGradient x1="0.1" y1="0" x2="0" y2="1" id="SvgjsLinearGradient1053"><stop stop-color="#536d93" offset="0"></stop><stop stop-color="#537893" offset="0.3333333333333333"></stop></linearGradient><linearGradient x1="0.1" y1="0" x2="0" y2="1" id="SvgjsLinearGradient1054"><stop stop-color="#637fa7" offset="0"></stop><stop stop-color="#638aa7" offset="0.4166666666666667"></stop></linearGradient><linearGradient x1="0.1" y1="0" x2="0" y2="1" id="SvgjsLinearGradient1055"><stop stop-color="#7a92b4" offset="0"></stop><stop stop-color="#7a9cb4" offset="0.5"></stop></linearGradient><linearGradient x1="0.1" y1="0" x2="0" y2="1" id="SvgjsLinearGradient1056"><stop stop-color="#91a5c1" offset="0"></stop><stop stop-color="#91adc1" offset="0.5833333333333334"></stop></linearGradient><linearGradient x1="0.1" y1="0" x2="0" y2="1" id="SvgjsLinearGradient1057"><stop stop-color="#a7b7ce" offset="0"></stop><stop stop-color="#a7bdce" offset="0.6666666666666666"></stop></linearGradient><linearGradient x1="0.1" y1="0" x2="0" y2="1" id="SvgjsLinearGradient1058"><stop stop-color="#becadb" offset="0"></stop><stop stop-color="#becfdb" offset="0.75"></stop></linearGradient><linearGradient x1="0.1" y1="0" x2="0" y2="1" id="SvgjsLinearGradient1059"><stop stop-color="#d5dde8" offset="0"></stop><stop stop-color="#d5e0e8" offset="0.8333333333333334"></stop></linearGradient><linearGradient x1="0.1" y1="0" x2="0" y2="1" id="SvgjsLinearGradient1060"><stop stop-color="#ecf0f5" offset="0"></stop><stop stop-color="#ecf1f5" offset="0.9166666666666666"></stop></linearGradient></defs></svg>