<svg xmlns="http://www.w3.org/2000/svg" version="1.1" xmlns:xlink="http://www.w3.org/1999/xlink" xmlns:svgjs="http://svgjs.dev/svgjs" viewBox="0 0 1920 1080"><rect width="1920" height="1080" fill="#ff0000"></rect><g transform="matrix(0.8131727983645296,0.8131727983645295,-0.8131727983645295,0.8131727983645296,618.4674246868974,-679.7591975467944)"><path d="M0,-1080C0,-1002.8571428571429,0,-771.4285714285716,0,-617.1428571428572C0,-462.85714285714295,0,-308.57142857142867,0,-154.28571428571433C0,-2.842170943040401e-14,0,154.28571428571428,0,308.57142857142856C0,462.85714285714283,0,617.1428571428571,0,771.4285714285713C0,925.7142857142856,0,1080,0,1234.2857142857142C0,1388.5714285714284,0,1542.8571428571427,0,1697.1428571428569C0,1851.428571428571,0,2082.8571428571427,0,2160L 1920 2160 L 1920 -1080 Z" fill="url(&quot;#SvgjsLinearGradient1385&quot;)"></path><path d="M160,-1080C160,-972,160,-648,160,-432C160,-216,160,0,160,216C160,432,160,648,160,864C160,1080,160,1296,160,1512C160,1728,160,2052,160,2160L 1920 2160 L 1920 -1080 Z" fill="url(&quot;#SvgjsLinearGradient1386&quot;)"></path><path d="M320,-1080C320,-990,320,-720,320,-540C320,-360,320,-180.0000000000001,320,-1.1368683772161603e-13C320,179.9999999999999,320,360,320,540C320,720,320,900,320,1080C320,1260,320,1440,320,1620C320,1800,320,2070,320,2160L 1920 2160 L 1920 -1080 Z" fill="url(&quot;#SvgjsLinearGradient1387&quot;)"></path><path d="M480,-1080C480,-972,480,-648,480,-432C480,-216,480,0,480,216C480,432,480,648,480,864C480,1080,480,1296,480,1512C480,1728,480,2052,480,2160L 1920 2160 L 1920 -1080 Z" fill="url(&quot;#SvgjsLinearGradient1388&quot;)"></path><path d="M640,-1080C640,-1012.5,640,-810,640,-675C640,-540,640,-405,640,-270C640,-135,640,0,640,135C640,270,640,405,640,540C640,675,640,810,640,945C640,1080,640,1215,640,1350C640,1485,640,1620,640,1755C640,1890,640,2092.5,640,2160L 1920 2160 L 1920 -1080 Z" fill="url(&quot;#SvgjsLinearGradient1389&quot;)"></path><path d="M800,-1080C800,-1002.8571428571429,800,-771.4285714285716,800,-617.1428571428572C800,-462.85714285714295,800,-308.57142857142867,800,-154.28571428571433C800,-2.842170943040401e-14,800,154.28571428571428,800,308.57142857142856C800,462.85714285714283,800,617.1428571428571,800,771.4285714285713C800,925.7142857142856,800,1080,800,1234.2857142857142C800,1388.5714285714284,800,1542.8571428571427,800,1697.1428571428569C800,1851.428571428571,800,2082.8571428571427,800,2160L 1920 2160 L 1920 -1080 Z" fill="url(&quot;#SvgjsLinearGradient1390&quot;)"></path><path d="M960,-1080C960,-1012.5,960,-810,960,-675C960,-540,960,-405,960,-270C960,-135,960,0,960,135C960,270,960,405,960,540C960,675,960,810,960,945C960,1080,960,1215,960,1350C960,1485,960,1620,960,1755C960,1890,960,2092.5,960,2160L 1920 2160 L 1920 -1080 Z" fill="url(&quot;#SvgjsLinearGradient1391&quot;)"></path><path d="M1120,-1080C1120,-990,1120,-720,1120,-540C1120,-360,1120,-180.0000000000001,1120,-1.1368683772161603e-13C1120,179.9999999999999,1120,360,1120,540C1120,720,1120,900,1120,1080C1120,1260,1120,1440,1120,1620C1120,1800,1120,2070,1120,2160L 1920 2160 L 1920 -1080 Z" fill="url(&quot;#SvgjsLinearGradient1392&quot;)"></path><path d="M1280,-1080C1280,-990,1280,-720,1280,-540C1280,-360,1280,-180.0000000000001,1280,-1.1368683772161603e-13C1280,179.9999999999999,1280,360,1280,540C1280,720,1280,900,1280,1080C1280,1260,1280,1440,1280,1620C1280,1800,1280,2070,1280,2160L 1920 2160 L 1920 -1080 Z" fill="url(&quot;#SvgjsLinearGradient1393&quot;)"></path><path d="M1440,-1080C1440,-1002.8571428571429,1440.0000000000002,-771.4285714285716,1440.0000000000002,-617.1428571428572C1440.0000000000002,-462.85714285714295,1440,-308.57142857142867,1440,-154.28571428571433C1440,-2.842170943040401e-14,1440,154.28571428571428,1440,308.57142857142856C1440,462.85714285714283,1440,617.1428571428571,1440,771.4285714285713C1440,925.7142857142856,1440,1080,1440,1234.2857142857142C1440,1388.5714285714284,1440,1542.8571428571427,1440,1697.1428571428569C1440,1851.428571428571,1440,2082.8571428571427,1440,2160L 1920 2160 L 1920 -1080 Z" fill="url(&quot;#SvgjsLinearGradient1394&quot;)"></path><path d="M1600,-1080C1600,-1002.8571428571429,1600,-771.4285714285716,1600,-617.1428571428572C1600,-462.85714285714295,1600,-308.57142857142867,1600,-154.28571428571433C1600,-2.842170943040401e-14,1600,154.28571428571428,1600,308.57142857142856C1600,462.85714285714283,1600,617.1428571428571,1600,771.4285714285713C1600,925.7142857142856,1600,1080,1600,1234.2857142857142C1600,1388.5714285714284,1600,1542.8571428571427,1600,1697.1428571428569C1600,1851.428571428571,1600,2082.8571428571427,1600,2160L 1920 2160 L 1920 -1080 Z" fill="url(&quot;#SvgjsLinearGradient1395&quot;)"></path><path d="M1760,-1080C1760,-1002.8571428571429,1760,-771.4285714285716,1760,-617.1428571428572C1760,-462.85714285714295,1760,-308.57142857142867,1760,-154.28571428571433C1760,-2.842170943040401e-14,1760,154.28571428571428,1760,308.57142857142856C1760,462.85714285714283,1760,617.1428571428571,1760,771.4285714285713C1760,925.7142857142856,1760,1080,1760,1234.2857142857142C1760,1388.5714285714284,1760,1542.8571428571427,1760,1697.1428571428569C1760,1851.428571428571,1760,2082.8571428571427,1760,2160L 1920 2160 L 1920 -1080 Z" fill="url(&quot;#SvgjsLinearGradient1396&quot;)"></path></g><defs><linearGradient x1="0.1" y1="0" x2="0" y2="1" id="SvgjsLinearGradient1385"><stop stop-color="#ff0000" offset="0"></stop><stop stop-color="#ff002b" offset="0"></stop></linearGradient><linearGradient x1="0.1" y1="0" x2="0" y2="1" id="SvgjsLinearGradient1386"><stop stop-color="#ff0080" offset="0"></stop><stop stop-color="#ff00aa" offset="0.08333333333333333"></stop></linearGradient><linearGradient x1="0.1" y1="0" x2="0" y2="1" id="SvgjsLinearGradient1387"><stop stop-color="#ff00ff" offset="0"></stop><stop stop-color="#d400ff" offset="0.16666666666666666"></stop></linearGradient><linearGradient x1="0.1" y1="0" x2="0" y2="1" id="SvgjsLinearGradient1388"><stop stop-color="#7f00ff" offset="0"></stop><stop stop-color="#5500ff" offset="0.25"></stop></linearGradient><linearGradient x1="0.1" y1="0" x2="0" y2="1" id="SvgjsLinearGradient1389"><stop stop-color="#0000ff" offset="0"></stop><stop stop-color="#002bff" offset="0.3333333333333333"></stop></linearGradient><linearGradient x1="0.1" y1="0" x2="0" y2="1" id="SvgjsLinearGradient1390"><stop stop-color="#007fff" offset="0"></stop><stop stop-color="#00a9ff" offset="0.4166666666666667"></stop></linearGradient><linearGradient x1="0.1" y1="0" x2="0" y2="1" id="SvgjsLinearGradient1391"><stop stop-color="#00ffff" offset="0"></stop><stop stop-color="#00ffd5" offset="0.5"></stop></linearGradient><linearGradient x1="0.1" y1="0" x2="0" y2="1" id="SvgjsLinearGradient1392"><stop stop-color="#00ff80" offset="0"></stop><stop stop-color="#00ff56" offset="0.5833333333333334"></stop></linearGradient><linearGradient x1="0.1" y1="0" x2="0" y2="1" id="SvgjsLinearGradient1393"><stop stop-color="#00ff00" offset="0"></stop><stop stop-color="#2bff00" offset="0.6666666666666666"></stop></linearGradient><linearGradient x1="0.1" y1="0" x2="0" y2="1" id="SvgjsLinearGradient1394"><stop stop-color="#80ff00" offset="0"></stop><stop stop-color="#aaff00" offset="0.75"></stop></linearGradient><linearGradient x1="0.1" y1="0" x2="0" y2="1" id="SvgjsLinearGradient1395"><stop stop-color="#ffff00" offset="0"></stop><stop stop-color="#ffd500" offset="0.8333333333333334"></stop></linearGradient><linearGradient x1="0.1" y1="0" x2="0" y2="1" id="SvgjsLinearGradient1396"><stop stop-color="#ff8000" offset="0"></stop><stop stop-color="#ff5600" offset="0.9166666666666666"></stop></linearGradient></defs></svg>