<svg xmlns="http://www.w3.org/2000/svg" version="1.1" xmlns:xlink="http://www.w3.org/1999/xlink" xmlns:svgjs="http://svgjs.dev/svgjs" viewBox="0 0 1920 1080"><rect width="1920" height="1080" fill="#ff0000"></rect><g transform="matrix(-1.15,1.408343819019456e-16,-1.408343819019456e-16,-1.15,2064,1161)"><path d="M0,-1080C0,-990,0,-720,0,-540C0,-360,0,-180.0000000000001,0,-1.1368683772161603e-13C0,179.9999999999999,0,360,0,540C0,720,0,900,0,1080C0,1260,0,1440,0,1620C0,1800,0,2070,0,2160L 1920 2160 L 1920 -1080 Z" fill="url(&quot;#SvgjsLinearGradient1133&quot;)"></path><path d="M160,-1080C160,-1002.8571428571429,160.00000000000003,-771.4285714285716,160.00000000000003,-617.1428571428572C160.00000000000003,-462.85714285714295,160,-308.57142857142867,160,-154.28571428571433C160,-2.842170943040401e-14,160,154.28571428571428,160,308.57142857142856C160,462.85714285714283,160,617.1428571428571,160,771.4285714285713C160,925.7142857142856,160,1080,160,1234.2857142857142C160,1388.5714285714284,160,1542.8571428571427,160,1697.1428571428569C160,1851.428571428571,160,2082.8571428571427,160,2160L 1920 2160 L 1920 -1080 Z" fill="url(&quot;#SvgjsLinearGradient1134&quot;)"></path><path d="M320,-1080C320,-990,320,-720,320,-540C320,-360,320,-180.0000000000001,320,-1.1368683772161603e-13C320,179.9999999999999,320,360,320,540C320,720,320,900,320,1080C320,1260,320,1440,320,1620C320,1800,320,2070,320,2160L 1920 2160 L 1920 -1080 Z" fill="url(&quot;#SvgjsLinearGradient1135&quot;)"></path><path d="M480,-1080C480,-990,480,-720,480,-540C480,-360,480.00000000000006,-180.0000000000001,480.00000000000006,-1.1368683772161603e-13C480.00000000000006,179.9999999999999,480,360,480,540C480,720,480,900,480,1080C480,1260,480,1440,480,1620C480,1800,480,2070,480,2160L 1920 2160 L 1920 -1080 Z" fill="url(&quot;#SvgjsLinearGradient1136&quot;)"></path><path d="M640,-1080C640,-972,640,-648,640,-432C640,-216,640,0,640,216C640,432,640,648,640,864C640,1080,640,1296,640,1512C640,1728,640,2052,640,2160L 1920 2160 L 1920 -1080 Z" fill="url(&quot;#SvgjsLinearGradient1137&quot;)"></path><path d="M800,-1080C800,-945,800,-540,800,-270C800,0,800,270,800,540C800,810,800,1080,800,1350C800,1620,800,2025,800,2160L 1920 2160 L 1920 -1080 Z" fill="url(&quot;#SvgjsLinearGradient1138&quot;)"></path><path d="M960,-1080C960,-1002.8571428571429,960,-771.4285714285716,960,-617.1428571428572C960,-462.85714285714295,960,-308.57142857142867,960,-154.28571428571433C960,-2.842170943040401e-14,960,154.28571428571428,960,308.57142857142856C960,462.85714285714283,960,617.1428571428571,960,771.4285714285713C960,925.7142857142856,960,1080,960,1234.2857142857142C960,1388.5714285714284,960,1542.8571428571427,960,1697.1428571428569C960,1851.428571428571,960,2082.8571428571427,960,2160L 1920 2160 L 1920 -1080 Z" fill="url(&quot;#SvgjsLinearGradient1139&quot;)"></path><path d="M1120,-1080C1120,-990,1120,-720,1120,-540C1120,-360,1120,-180.0000000000001,1120,-1.1368683772161603e-13C1120,179.9999999999999,1120,360,1120,540C1120,720,1120,900,1120,1080C1120,1260,1120,1440,1120,1620C1120,1800,1120,2070,1120,2160L 1920 2160 L 1920 -1080 Z" fill="url(&quot;#SvgjsLinearGradient1140&quot;)"></path><path d="M1280,-1080C1280,-972,1280,-648,1280,-432C1280,-216,1280,0,1280,216C1280,432,1280,648,1280,864C1280,1080,1280,1296,1280,1512C1280,1728,1280,2052,1280,2160L 1920 2160 L 1920 -1080 Z" fill="url(&quot;#SvgjsLinearGradient1141&quot;)"></path><path d="M1440,-1080C1440,-1002.8571428571429,1440.0000000000002,-771.4285714285716,1440.0000000000002,-617.1428571428572C1440.0000000000002,-462.85714285714295,1440,-308.57142857142867,1440,-154.28571428571433C1440,-2.842170943040401e-14,1440,154.28571428571428,1440,308.57142857142856C1440,462.85714285714283,1440,617.1428571428571,1440,771.4285714285713C1440,925.7142857142856,1440,1080,1440,1234.2857142857142C1440,1388.5714285714284,1440,1542.8571428571427,1440,1697.1428571428569C1440,1851.428571428571,1440,2082.8571428571427,1440,2160L 1920 2160 L 1920 -1080 Z" fill="url(&quot;#SvgjsLinearGradient1142&quot;)"></path><path d="M1600,-1080C1600,-1002.8571428571429,1600,-771.4285714285716,1600,-617.1428571428572C1600,-462.85714285714295,1600,-308.57142857142867,1600,-154.28571428571433C1600,-2.842170943040401e-14,1600,154.28571428571428,1600,308.57142857142856C1600,462.85714285714283,1600,617.1428571428571,1600,771.4285714285713C1600,925.7142857142856,1600,1080,1600,1234.2857142857142C1600,1388.5714285714284,1600,1542.8571428571427,1600,1697.1428571428569C1600,1851.428571428571,1600,2082.8571428571427,1600,2160L 1920 2160 L 1920 -1080 Z" fill="url(&quot;#SvgjsLinearGradient1143&quot;)"></path><path d="M1760,-1080C1760,-972,1760,-648,1760,-432C1760,-216,1760,0,1760,216C1760,432,1760,648,1760,864C1760,1080,1760,1296,1760,1512C1760,1728,1760,2052,1760,2160L 1920 2160 L 1920 -1080 Z" fill="url(&quot;#SvgjsLinearGradient1144&quot;)"></path></g><defs><linearGradient x1="0.1" y1="0" x2="0" y2="1" id="SvgjsLinearGradient1133"><stop stop-color="#ff0000" offset="0"></stop><stop stop-color="#ff002b" offset="0"></stop></linearGradient><linearGradient x1="0.1" y1="0" x2="0" y2="1" id="SvgjsLinearGradient1134"><stop stop-color="#f20000" offset="0"></stop><stop stop-color="#f20028" offset="0.08333333333333333"></stop></linearGradient><linearGradient x1="0.1" y1="0" x2="0" y2="1" id="SvgjsLinearGradient1135"><stop stop-color="#e60000" offset="0"></stop><stop stop-color="#e60026" offset="0.16666666666666666"></stop></linearGradient><linearGradient x1="0.1" y1="0" x2="0" y2="1" id="SvgjsLinearGradient1136"><stop stop-color="#d90000" offset="0"></stop><stop stop-color="#d90024" offset="0.25"></stop></linearGradient><linearGradient x1="0.1" y1="0" x2="0" y2="1" id="SvgjsLinearGradient1137"><stop stop-color="#cc0000" offset="0"></stop><stop stop-color="#cc0022" offset="0.3333333333333333"></stop></linearGradient><linearGradient x1="0.1" y1="0" x2="0" y2="1" id="SvgjsLinearGradient1138"><stop stop-color="#bf0000" offset="0"></stop><stop stop-color="#bf0020" offset="0.4166666666666667"></stop></linearGradient><linearGradient x1="0.1" y1="0" x2="0" y2="1" id="SvgjsLinearGradient1139"><stop stop-color="#b30000" offset="0"></stop><stop stop-color="#b3001e" offset="0.5"></stop></linearGradient><linearGradient x1="0.1" y1="0" x2="0" y2="1" id="SvgjsLinearGradient1140"><stop stop-color="#a60000" offset="0"></stop><stop stop-color="#a6001c" offset="0.5833333333333334"></stop></linearGradient><linearGradient x1="0.1" y1="0" x2="0" y2="1" id="SvgjsLinearGradient1141"><stop stop-color="#990000" offset="0"></stop><stop stop-color="#99001a" offset="0.6666666666666666"></stop></linearGradient><linearGradient x1="0.1" y1="0" x2="0" y2="1" id="SvgjsLinearGradient1142"><stop stop-color="#8d0000" offset="0"></stop><stop stop-color="#8d0017" offset="0.75"></stop></linearGradient><linearGradient x1="0.1" y1="0" x2="0" y2="1" id="SvgjsLinearGradient1143"><stop stop-color="#800000" offset="0"></stop><stop stop-color="#800015" offset="0.8333333333333334"></stop></linearGradient><linearGradient x1="0.1" y1="0" x2="0" y2="1" id="SvgjsLinearGradient1144"><stop stop-color="#730000" offset="0"></stop><stop stop-color="#730013" offset="0.9166666666666666"></stop></linearGradient></defs></svg>